<svg width="24" height="24" viewBox="0 0 24 24" fill="none" xmlns="http://www.w3.org/2000/svg">
<path fill-rule="evenodd" clip-rule="evenodd" d="M11.0585 4.74667C7.57253 4.74667 4.74658 7.57263 4.74658 11.0586C4.74658 14.5446 7.57253 17.3706 11.0585 17.3706C14.5445 17.3706 17.3705 14.5446 17.3705 11.0586C17.3705 7.57263 14.5445 4.74667 11.0585 4.74667ZM3.24658 11.0586C3.24658 6.7442 6.74411 3.24667 11.0585 3.24667C15.3729 3.24667 18.8705 6.7442 18.8705 11.0586C18.8705 15.373 15.3729 18.8706 11.0585 18.8706C6.74411 18.8706 3.24658 15.373 3.24658 11.0586Z" fill="#282828"/>
<path fill-rule="evenodd" clip-rule="evenodd" d="M15.5214 15.5214C15.8143 15.2285 16.2892 15.2285 16.5821 15.5214L20.5337 19.473C20.8266 19.7659 20.8266 20.2408 20.5337 20.5337C20.2408 20.8266 19.766 20.8266 19.4731 20.5337L15.5214 16.582C15.2285 16.2891 15.2285 15.8143 15.5214 15.5214Z" fill="#282828"/>
</svg>
