<svg width="40" height="40" viewBox="0 0 40 40" fill="none" xmlns="http://www.w3.org/2000/svg">
<path fill-rule="evenodd" clip-rule="evenodd" d="M34.5601 7.97839C35.2505 7.97839 35.8101 8.53804 35.8101 9.22839V12.5617C35.8101 13.2521 35.2505 13.8117 34.5601 13.8117H31.2268C30.5364 13.8117 29.9768 13.2521 29.9768 12.5617C29.9768 11.8714 30.5364 11.3117 31.2268 11.3117H33.3101V9.22839C33.3101 8.53804 33.8698 7.97839 34.5601 7.97839Z" fill="#45BEDF"/>
<path fill-rule="evenodd" clip-rule="evenodd" d="M15.0932 16.6834C14.4319 16.6834 13.8948 17.2205 13.8948 17.8818C13.8948 18.5721 13.3352 19.1318 12.6448 19.1318C11.9545 19.1318 11.3948 18.5721 11.3948 17.8818C11.3948 15.8397 13.0512 14.1834 15.0932 14.1834C17.1352 14.1834 18.7915 15.8397 18.7915 17.8818C18.7915 19.0365 18.3097 19.9034 17.6863 20.5648C17.1663 21.1166 16.5016 21.5675 15.9629 21.933C15.9067 21.9711 15.8519 22.0083 15.7988 22.0446C15.1176 22.5096 14.616 22.8902 14.2994 23.3151H17.5415C18.2319 23.3151 18.7915 23.8747 18.7915 24.5651C18.7915 25.2555 18.2319 25.8151 17.5415 25.8151H12.6465C11.9562 25.8151 11.3965 25.2555 11.3965 24.5651C11.3965 22.0337 13.1986 20.7926 14.3892 19.9798C14.4306 19.9516 14.4712 19.9239 14.5111 19.8967C15.109 19.489 15.545 19.1918 15.867 18.8501C16.1615 18.5376 16.2915 18.257 16.2915 17.8818C16.2915 17.2205 15.7545 16.6834 15.0932 16.6834Z" fill="#45BEDF"/>
<path fill-rule="evenodd" clip-rule="evenodd" d="M21.875 14.1851C22.5653 14.1851 23.125 14.7447 23.125 15.4351V18.7638L26.5034 18.8001C27.1937 18.8075 27.7473 19.3732 27.7399 20.0635C27.7325 20.7538 27.1669 21.3074 26.4766 21.3L22.2857 21.2549C21.3727 21.2421 20.625 20.5006 20.625 19.5717V15.4351C20.625 14.7447 21.1846 14.1851 21.875 14.1851Z" fill="#45BEDF"/>
<path fill-rule="evenodd" clip-rule="evenodd" d="M26.4831 14.2834C27.1735 14.2834 27.7331 14.8431 27.7331 15.5334V24.5668C27.7331 25.2571 27.1735 25.8168 26.4831 25.8168C25.7928 25.8168 25.2331 25.2571 25.2331 24.5668V15.5334C25.2331 14.8431 25.7928 14.2834 26.4831 14.2834Z" fill="#45BEDF"/>
<path fill-rule="evenodd" clip-rule="evenodd" d="M3.19498 20.0001C3.19498 10.7198 10.7179 3.19507 20 3.19507C26.4381 3.19507 32.0422 6.73556 34.9275 11.959C35.2613 12.5633 35.042 13.3238 34.4377 13.6576C33.8334 13.9914 33.0729 13.7721 32.7391 13.1678C30.2811 8.71791 25.5019 5.69507 20 5.69507C12.0988 5.69507 5.69498 12.1003 5.69498 20.0001C5.69498 27.8998 12.0988 34.3051 20 34.3051C27.9012 34.3051 34.305 27.8998 34.305 20.0001C34.305 19.3097 34.8646 18.7501 35.555 18.7501C36.2453 18.7501 36.805 19.3097 36.805 20.0001C36.805 29.2803 29.2821 36.8051 20 36.8051C10.7179 36.8051 3.19498 29.2803 3.19498 20.0001Z" fill="#45BEDF"/>
</svg>
