<svg width="40" height="40" viewBox="0 0 40 40" fill="none" xmlns="http://www.w3.org/2000/svg">
<path fill-rule="evenodd" clip-rule="evenodd" d="M18.9521 6.537C19.6001 6.15986 20.3999 6.15987 21.0479 6.537ZM18.9521 6.537L8.95221 12.3569V12.3569C8.31126 12.7301 7.91669 13.4157 7.91669 14.1566V25.8433C7.91669 26.5839 8.31091 27.2702 8.95313 27.6452V27.6452L18.9521 33.4646C19.6001 33.8418 20.3999 33.8418 21.0479 33.4646L31.0478 27.6447C31.6888 27.2716 32.0834 26.586 32.0834 25.845V14.1566C32.0834 13.4156 31.6888 12.7301 31.0478 12.3569L21.0479 6.537M22.3054 4.3763L32.3055 10.1963C33.7144 11.0165 34.5834 12.5243 34.5834 14.1566V25.845C34.5834 27.4773 33.7145 28.9851 32.3055 29.8053L22.3054 35.6253C20.8801 36.4549 19.1199 36.4549 17.6946 35.6253L7.69459 29.8053C6.28704 28.9837 5.41669 27.4759 5.41669 25.8433V14.1566C5.41669 12.5243 6.2855 11.0165 7.6945 10.1964L17.6946 4.3763C19.1199 3.54677 20.8801 3.54677 22.3054 4.3763Z" fill="#45BEDF"/>
<path fill-rule="evenodd" clip-rule="evenodd" d="M20 18.75C20.6904 18.75 21.25 19.3096 21.25 20V35C21.25 35.6903 20.6904 36.25 20 36.25C19.3097 36.25 18.75 35.6903 18.75 35V20C18.75 19.3096 19.3097 18.75 20 18.75Z" fill="#45BEDF"/>
<path fill-rule="evenodd" clip-rule="evenodd" d="M33.9993 11.9255C34.3442 12.5235 34.139 13.2879 33.541 13.6328L20.6244 21.0828C20.0263 21.4277 19.2619 21.2225 18.917 20.6245C18.5721 20.0265 18.7773 19.2621 19.3753 18.9172L32.292 11.4672C32.89 11.1223 33.6544 11.3274 33.9993 11.9255Z" fill="#45BEDF"/>
<path fill-rule="evenodd" clip-rule="evenodd" d="M6.00035 11.9255C6.34527 11.3274 7.10967 11.1223 7.70769 11.4672L20.6244 18.9172C21.2224 19.2621 21.4275 20.0265 21.0826 20.6245C20.7377 21.2225 19.9733 21.4277 19.3753 21.0828L6.45862 13.6328C5.86061 13.2879 5.65543 12.5235 6.00035 11.9255Z" fill="#45BEDF"/>
</svg>
