<svg width="40" height="40" viewBox="0 0 40 40" fill="none" xmlns="http://www.w3.org/2000/svg">
<path fill-rule="evenodd" clip-rule="evenodd" d="M30.7136 15.3273C30.2168 14.4784 29.1944 14.0921 28.2604 14.4002C27.6048 14.6165 26.898 14.2604 26.6817 13.6048C26.4654 12.9492 26.8215 12.2424 27.4771 12.0261C29.5311 11.3484 31.7793 12.1982 32.8715 14.0651L35.6285 18.7794C35.6285 18.7795 35.6285 18.7794 35.6285 18.7794C36.2469 19.8365 36.4166 21.0972 36.0998 22.2802C35.7829 23.4632 35.0058 24.4703 33.9418 25.0768L17.1812 34.6301C15.31 35.6966 13.1931 36.2571 11.0392 36.2562L11.0403 33.7562C12.7597 33.7569 14.4495 33.3095 15.9433 32.4581L32.7038 22.9049C32.7038 22.9049 32.7038 22.9049 32.7038 22.9049C33.1875 22.6291 33.5408 22.1713 33.6849 21.6334C33.829 21.0955 33.7518 20.5224 33.4706 20.0418L30.7136 15.3273C30.7135 15.3273 30.7136 15.3274 30.7136 15.3273Z" fill="#45BEDF"/>
<path fill-rule="evenodd" clip-rule="evenodd" d="M8.32862 6.24365C7.17726 6.24365 6.2439 7.17701 6.2439 8.32837V29.1704C6.2439 31.703 8.29701 33.7562 10.8297 33.7562C13.3623 33.7562 15.4154 31.703 15.4154 29.1704V8.32837C15.4154 7.17701 14.4821 6.24365 13.3307 6.24365H8.32862ZM10.8297 36.2562C6.9163 36.2562 3.7439 33.0837 3.7439 29.1704V8.32837C3.7439 5.7963 5.79655 3.74365 8.32862 3.74365H13.3307C15.8628 3.74365 17.9154 5.7963 17.9154 8.32837V29.1704C17.9154 33.0837 14.743 36.2562 10.8297 36.2562Z" fill="#45BEDF"/>
<path fill-rule="evenodd" clip-rule="evenodd" d="M15.8605 7.42645C17.1287 5.25793 19.9058 4.51379 22.0883 5.75769L26.9009 8.50074C27.965 9.10721 28.7422 10.1143 29.0592 11.2973C29.3762 12.4804 29.2066 13.7411 28.5883 14.7983C28.5883 14.7983 28.5883 14.7983 28.5883 14.7983L18.6674 31.7626C17.0389 34.547 14.0553 36.2578 10.8297 36.2562C10.1393 36.2558 9.57933 35.6959 9.57967 35.0055C9.58002 34.3152 10.1393 33.7558 10.8297 33.7562C13.1667 33.7573 15.3294 32.5179 16.5093 30.5005C16.5093 30.5005 16.5093 30.5005 16.5093 30.5005L26.4303 13.5363C26.7114 13.0555 26.7885 12.4823 26.6444 11.9443C26.5003 11.4064 26.1469 10.9485 25.663 10.6727L20.8504 7.9297C20.8504 7.92969 20.8504 7.9297 20.8504 7.9297C19.858 7.3641 18.5952 7.70247 18.0185 8.68854L17.7444 9.1572C17.3959 9.75311 16.6303 9.95365 16.0343 9.60511C15.4384 9.25657 15.2379 8.49094 15.5864 7.89503L15.8605 7.42645C15.8605 7.42642 15.8605 7.42648 15.8605 7.42645Z" fill="#45BEDF"/>
</svg>
