<svg width="40" height="40" viewBox="0 0 40 40" fill="none" xmlns="http://www.w3.org/2000/svg">
<path fill-rule="evenodd" clip-rule="evenodd" d="M11.6667 6.25C8.67512 6.25 6.25 8.67512 6.25 11.6667C6.25 14.6582 8.67512 17.0833 11.6667 17.0833H25C26.1506 17.0833 27.0833 16.1506 27.0833 15V8.33333C27.0833 7.18274 26.1506 6.25 25 6.25H11.6667ZM3.75 11.6667C3.75 7.29441 7.29441 3.75 11.6667 3.75H25C27.5313 3.75 29.5833 5.80203 29.5833 8.33333V15C29.5833 17.5313 27.5313 19.5833 25 19.5833H11.6667C7.29441 19.5833 3.75 16.0389 3.75 11.6667Z" fill="#45BEDF"/>
<path fill-rule="evenodd" clip-rule="evenodd" d="M26.9779 7.5C26.9779 6.80964 27.5376 6.25 28.2279 6.25H31.6667C33.2776 6.25 34.5834 7.55584 34.5834 9.16667V12.5C34.5834 14.1108 33.2776 15.4167 31.6667 15.4167H28.3334C27.643 15.4167 27.0834 14.857 27.0834 14.1667C27.0834 13.4763 27.643 12.9167 28.3334 12.9167H31.6667C31.8969 12.9167 32.0834 12.7301 32.0834 12.5V9.16667C32.0834 8.93655 31.8969 8.75 31.6667 8.75H28.2279C27.5376 8.75 26.9779 8.19036 26.9779 7.5Z" fill="#45BEDF"/>
<path fill-rule="evenodd" clip-rule="evenodd" d="M32.0833 10.8333C32.0833 10.143 32.643 9.58333 33.3333 9.58333H36.6667C37.357 9.58333 37.9167 10.143 37.9167 10.8333C37.9167 11.5237 37.357 12.0833 36.6667 12.0833H33.3333C32.643 12.0833 32.0833 11.5237 32.0833 10.8333Z" fill="#45BEDF"/>
<path fill-rule="evenodd" clip-rule="evenodd" d="M10.4167 11.6667C10.4167 10.9763 10.9763 10.4167 11.6667 10.4167H15.9975C16.6878 10.4167 17.2475 10.9763 17.2475 11.6667C17.2475 12.357 16.6878 12.9167 15.9975 12.9167H11.6667C10.9763 12.9167 10.4167 12.357 10.4167 11.6667Z" fill="#45BEDF"/>
<path fill-rule="evenodd" clip-rule="evenodd" d="M19.5619 17.1475C20.2168 17.3658 20.5708 18.0737 20.3525 18.7286L17.0191 28.7286C16.8008 29.3835 16.0929 29.7375 15.438 29.5192C14.7831 29.3009 14.4291 28.593 14.6474 27.938L17.9807 17.938C18.1991 17.2831 18.907 16.9292 19.5619 17.1475Z" fill="#45BEDF"/>
<path fill-rule="evenodd" clip-rule="evenodd" d="M25 17.0833C25.6904 17.0833 26.25 17.643 26.25 18.3333V20.7106C26.25 22.8495 24.5161 24.5833 22.3773 24.5833H17.5C16.8096 24.5833 16.25 24.0237 16.25 23.3333C16.25 22.643 16.8096 22.0833 17.5 22.0833H22.3773C23.1354 22.0833 23.75 21.4687 23.75 20.7106V18.3333C23.75 17.643 24.3096 17.0833 25 17.0833Z" fill="#45BEDF"/>
<path fill-rule="evenodd" clip-rule="evenodd" d="M11.2451 17.0978C11.9 17.3161 12.254 18.024 12.0357 18.6789L8.68579 28.7286C8.46748 29.3836 7.75958 29.7375 7.10465 29.5192C6.44972 29.3009 6.09577 28.593 6.31408 27.9381L9.66398 17.8883C9.88229 17.2334 10.5902 16.8795 11.2451 17.0978Z" fill="#45BEDF"/>
<path fill-rule="evenodd" clip-rule="evenodd" d="M3.75 30C3.75 28.3892 5.05584 27.0833 6.66667 27.0833H16.6667C18.2775 27.0833 19.5833 28.3892 19.5833 30V33.3333C19.5833 34.9442 18.2775 36.25 16.6667 36.25H6.66667C5.05584 36.25 3.75 34.9442 3.75 33.3333V30ZM6.66667 29.5833C6.43655 29.5833 6.25 29.7699 6.25 30V33.3333C6.25 33.5635 6.43655 33.75 6.66667 33.75H16.6667C16.8968 33.75 17.0833 33.5635 17.0833 33.3333V30C17.0833 29.7699 16.8968 29.5833 16.6667 29.5833H6.66667Z" fill="#45BEDF"/>
</svg>
