<svg width="20" height="20" viewBox="0 0 20 20" fill="none" xmlns="http://www.w3.org/2000/svg">
<path d="M13.4167 18.1668C13.1667 18.1668 13 18.1668 12.75 18.0835C10.3334 17.5835 7.91669 16.2502 5.83336 14.1668C3.75003 12.0835 2.41669 9.66683 1.91669 7.25016C1.75003 6.16683 2.08336 5.0835 2.83336 4.3335L3.33336 3.75016C4.25003 2.8335 5.66669 2.8335 6.58336 3.75016L7.58336 4.75016C8.33336 5.50016 8.25003 6.66683 7.50003 7.41683L6.83336 8.16683C7.33336 9.25016 8.00003 10.2502 8.91669 11.1668C9.83336 12.0835 10.8334 12.7502 11.9167 13.2502L12.6667 12.5002C13.3334 11.8335 14.5834 11.7502 15.3334 12.5002L16.3334 13.5002C17.25 14.4168 17.25 15.8335 16.3334 16.7502L15.75 17.3335C15.0834 17.8335 14.25 18.1668 13.4167 18.1668ZM5.00003 4.3335C4.75003 4.3335 4.50003 4.41683 4.25003 4.66683L3.66669 5.16683C3.25003 5.66683 3.00003 6.3335 3.16669 7.00016C3.58336 9.16683 4.83336 11.4168 6.75003 13.2502C8.66669 15.1668 10.8334 16.4168 13 16.8335C13.6667 17.0002 14.3334 16.7502 14.8334 16.3335L15.4167 15.7502C15.8334 15.3335 15.8334 14.6668 15.4167 14.2502L14.4167 13.3335C14.1667 13.0835 13.75 13.0835 13.5 13.3335L12.75 14.0835C12.4167 14.4168 11.8334 14.5835 11.4167 14.3335C10.1667 13.8335 9.00003 13.0002 8.00003 12.0002C7.00003 11.0002 6.16669 9.8335 5.66669 8.66683C5.50003 8.16683 5.58336 7.5835 5.91669 7.25016L6.58336 6.5835C6.91669 6.25016 6.91669 5.8335 6.66669 5.5835L5.75003 4.66683C5.50003 4.41683 5.25003 4.3335 5.00003 4.3335Z" fill="#282828"/>
<path d="M13.25 7.41683C13.0834 7.41683 12.9167 7.3335 12.8334 7.25016C12.3334 6.75016 11.6667 6.50016 10.9167 6.50016C10.9167 6.50016 10.9167 6.50016 10.8334 6.50016C10.5 6.50016 10.25 6.25016 10.1667 5.91683C10.1667 5.5835 10.4167 5.25016 10.75 5.25016C11.8334 5.25016 12.8334 5.66683 13.5834 6.41683C13.8334 6.66683 13.8334 7.0835 13.5834 7.3335C13.5 7.3335 13.3334 7.41683 13.25 7.41683Z" fill="#282828"/>
<path d="M15.5834 5.0835C15.4167 5.0835 15.25 5.00016 15.1667 4.91683C14 3.75016 12.5 3.16683 10.8334 3.16683C10.5 3.16683 10.1667 2.91683 10.1667 2.50016C10.1667 2.0835 10.4167 1.8335 10.8334 1.8335C12.75 1.8335 14.6667 2.5835 16 4.00016C16.25 4.25016 16.25 4.66683 16 4.91683C15.9167 5.00016 15.75 5.0835 15.5834 5.0835Z" fill="#282828"/>
<path d="M14.1667 9.8335C13.8334 9.8335 13.5 9.5835 13.5 9.16683C13.5 8.41683 13.25 7.75016 12.75 7.25016C12.5 7.00016 12.5 6.5835 12.75 6.3335C13 6.0835 13.4167 6.0835 13.6667 6.3335C14.4167 7.0835 14.8334 8.0835 14.8334 9.16683C14.8334 9.50016 14.5 9.8335 14.1667 9.8335Z" fill="#282828"/>
<path d="M17.5 9.8335C17.1667 9.8335 16.8334 9.5835 16.8334 9.16683C16.8334 7.5835 16.1667 6.00016 15.0834 4.8335C14.8334 4.5835 14.8334 4.16683 15.0834 3.91683C15.3334 3.66683 15.75 3.66683 16 3.91683C17.4167 5.3335 18.1667 7.16683 18.1667 9.0835C18.1667 9.50016 17.9167 9.8335 17.5 9.8335Z" fill="#282828"/>
</svg>
