<svg width="24" height="24" viewBox="0 0 24 24" fill="none" xmlns="http://www.w3.org/2000/svg">
<path d="M11.1287 2.38609C11.3828 1.8713 12.1169 1.8713 12.371 2.38609L15.1562 8.02855C15.257 8.23278 15.4518 8.37441 15.6771 8.40735L21.9066 9.31788C22.4746 9.40089 22.7009 10.099 22.2897 10.4995L17.7832 14.8888C17.6199 15.048 17.5453 15.2773 17.5838 15.5021L18.6472 21.7023C18.7443 22.2682 18.1503 22.6997 17.6421 22.4324L12.0723 19.5033C11.8705 19.3972 11.6293 19.3972 11.4275 19.5033L5.85765 22.4324C5.34948 22.6997 4.75547 22.2682 4.85253 21.7023L5.91592 15.5021C5.95448 15.2773 5.8799 15.048 5.71652 14.8888L1.21001 10.4995C0.798835 10.099 1.02519 9.40089 1.59313 9.31788L7.82261 8.40735C8.04798 8.37441 8.24275 8.23278 8.34357 8.02855L11.1287 2.38609Z" fill="#EEB83B"/>
</svg>
